<svg xmlns="http://www.w3.org/2000/svg" xmlns:xlink="http://www.w3.org/1999/xlink" width="1000" zoomAndPan="magnify" viewBox="0 0 750 749.999995" height="1000" preserveAspectRatio="xMidYMid meet" version="1.0"><defs><filter x="0%" y="0%" width="100%" height="100%" id="7e7b57d6e9"><feColorMatrix values="0 0 0 0 1 0 0 0 0 1 0 0 0 0 1 0 0 0 1 0" color-interpolation-filters="sRGB"/></filter><clipPath id="475238bcb3"><path d="M 17.351562 17.351562 L 732.851562 17.351562 L 732.851562 732.851562 L 17.351562 732.851562 Z M 17.351562 17.351562 " clip-rule="nonzero"/></clipPath><mask id="d3966eb320"><g filter="url(#7e7b57d6e9)"><rect x="-75" width="900" fill="#000000" y="-74.999999" height="899.999994" fill-opacity="0.2"/></g></mask><clipPath id="19d74540f6"><rect x="0" width="37" y="0" height="69"/></clipPath><mask id="5c9631bb78"><g filter="url(#7e7b57d6e9)"><rect x="-75" width="900" fill="#000000" y="-74.999999" height="899.999994" fill-opacity="0.2"/></g></mask><clipPath id="9af83860a2"><rect x="0" width="235" y="0" height="89"/></clipPath><mask id="d46d774553"><g filter="url(#7e7b57d6e9)"><rect x="-75" width="900" fill="#000000" y="-74.999999" height="899.999994" fill-opacity="0.2"/></g></mask><clipPath id="7faa859305"><path d="M 1 0.078125 L 242.640625 0.078125 L 242.640625 40 L 1 40 Z M 1 0.078125 " clip-rule="nonzero"/></clipPath><clipPath id="4e0bcffc1c"><rect x="0" width="243" y="0" height="41"/></clipPath><mask id="b0a282c21b"><g filter="url(#7e7b57d6e9)"><rect x="-75" width="900" fill="#000000" y="-74.999999" height="899.999994" fill-opacity="0.2"/></g></mask><clipPath id="e7ddff7b50"><path d="M 0 1 L 90.480469 1 L 90.480469 79.71875 L 0 79.71875 Z M 0 1 " clip-rule="nonzero"/></clipPath><clipPath id="2861d540d7"><rect x="0" width="91" y="0" height="80"/></clipPath></defs><g clip-path="url(#475238bcb3)"><path fill="#04697a" d="M 375.101562 17.351562 C 177.523438 17.351562 17.351562 177.523438 17.351562 375.101562 C 17.351562 572.683594 177.523438 732.851562 375.101562 732.851562 C 572.683594 732.851562 732.851562 572.683594 732.851562 375.101562 C 732.851562 177.523438 572.683594 17.351562 375.101562 17.351562 " fill-opacity="1" fill-rule="nonzero"/></g><path fill="#fffffe" d="M 590.160156 274.066406 C 598.191406 296.121094 586.8125 320.511719 564.746094 328.539062 L 535.671875 248.671875 C 557.75 240.644531 582.125 252.007812 590.160156 274.066406 Z M 590.160156 274.066406 " fill-opacity="1" fill-rule="nonzero"/><g mask="url(#d3966eb320)"><g transform="matrix(1, 0, 0, 1, 557, 261)"><g clip-path="url(#19d74540f6)"><path fill="#fffffe" d="M 7.746094 67.539062 L 1.527344 50.472656 C 20.976562 42.410156 31.480469 21.335938 26.496094 1.152344 C 29.273438 4.648438 31.546875 8.632812 33.160156 13.066406 C 41.191406 35.121094 29.8125 59.511719 7.746094 67.539062 Z M 7.746094 67.539062 " fill-opacity="1" fill-rule="nonzero"/></g></g></g><path fill="#05aac6" d="M 608.613281 449.015625 C 610.898438 455.261719 607.664062 462.183594 601.402344 464.457031 L 594.511719 466.96875 C 588.25 469.242188 581.335938 466.023438 579.050781 459.761719 L 578.148438 457.273438 L 463.144531 141.449219 L 462.242188 138.960938 C 459.96875 132.699219 463.191406 125.777344 469.453125 123.503906 L 476.355469 120.992188 C 482.605469 118.71875 489.53125 121.941406 491.804688 128.199219 L 535.660156 248.671875 L 535.671875 248.671875 L 564.746094 328.539062 Z M 608.613281 449.015625 " fill-opacity="1" fill-rule="nonzero"/><path fill="#fffffe" d="M 361.828125 488.34375 L 346.503906 446.285156 C 345.640625 443.914062 343.019531 442.695312 340.644531 443.554688 C 338.273438 444.417969 337.050781 447.042969 337.914062 449.414062 L 351.675781 487.175781 L 314.75 500.613281 C 312.378906 501.476562 311.15625 504.097656 312.019531 506.46875 C 312.695312 508.324219 314.449219 509.476562 316.316406 509.476562 C 316.832031 509.476562 317.363281 509.386719 317.878906 509.199219 L 359.097656 494.203125 C 360.234375 493.785156 361.164062 492.9375 361.675781 491.839844 C 362.1875 490.738281 362.242188 489.480469 361.828125 488.34375 Z M 361.828125 488.34375 " fill-opacity="1" fill-rule="nonzero"/><path fill="#fffffe" d="M 352.847656 605.230469 L 297.472656 625.378906 C 281.382812 631.238281 263.566406 622.933594 257.703125 606.839844 L 233.421875 540.144531 L 216.476562 493.597656 L 301.003906 462.835938 L 306.269531 477.296875 L 316.316406 504.90625 Z M 352.847656 605.230469 " fill-opacity="1" fill-rule="nonzero"/><path fill="#05aac6" d="M 288.46875 300.257812 L 342.210938 447.847656 L 301.003906 462.835938 L 216.476562 493.597656 C 175.691406 508.433594 130.621094 487.40625 115.777344 446.660156 C 100.933594 405.894531 121.960938 360.84375 162.730469 346.003906 Z M 288.46875 300.257812 " fill-opacity="1" fill-rule="nonzero"/><path fill="#fffffe" d="M 463.144531 141.449219 L 578.148438 457.273438 C 457.535156 410.496094 342.210938 447.847656 342.210938 447.847656 L 288.46875 300.257812 L 288.476562 300.257812 C 288.476562 300.257812 400.832031 254.773438 463.144531 141.449219 Z M 463.144531 141.449219 " fill-opacity="1" fill-rule="nonzero"/><g mask="url(#5c9631bb78)"><g transform="matrix(1, 0, 0, 1, 109, 411)"><g clip-path="url(#9af83860a2)"><path fill="#fffffe" d="M 233.210938 36.847656 L 192.003906 51.835938 L 107.476562 82.597656 C 66.691406 97.433594 21.621094 76.40625 6.777344 35.660156 C 2.617188 24.238281 1.28125 12.484375 2.390625 1.152344 C 3.007812 7.59375 4.457031 14.070312 6.777344 20.433594 C 21.621094 61.179688 66.691406 82.207031 107.476562 67.371094 L 192.003906 36.609375 L 228.320312 23.402344 Z M 233.210938 36.847656 " fill-opacity="1" fill-rule="nonzero"/></g></g></g><g mask="url(#d46d774553)"><g transform="matrix(1, 0, 0, 1, 336, 418)"><g clip-path="url(#4e0bcffc1c)"><g clip-path="url(#7faa859305)"><path fill="#fffffe" d="M 242.148438 39.273438 C 121.535156 -7.503906 6.210938 29.847656 6.210938 29.847656 L 1.320312 16.402344 L 6.210938 14.621094 C 6.210938 14.621094 117.476562 -21.414062 235.726562 21.636719 Z M 242.148438 39.273438 " fill-opacity="1" fill-rule="nonzero"/></g></g></g></g><g mask="url(#b0a282c21b)"><g transform="matrix(1, 0, 0, 1, 216, 461)"><g clip-path="url(#2861d540d7)"><g clip-path="url(#e7ddff7b50)"><path fill="#fffffe" d="M 90.269531 16.296875 L 17.421875 79.144531 L 0.476562 32.597656 L 85.003906 1.835938 Z M 90.269531 16.296875 " fill-opacity="1" fill-rule="nonzero"/></g></g></g></g></svg>